<svg width="7" height="12" viewBox="0 0 7 12" fill="none" xmlns="http://www.w3.org/2000/svg">
<path d="M1.50854 11.4812C1.29522 11.4812 1.11286 11.4072 0.961464 11.2593C0.810071 11.1113 0.734375 10.9307 0.734375 10.7174C0.734375 10.504 0.813512 10.3182 0.971786 10.16L5.14196 6.0001L0.971786 1.84025C0.813512 1.68197 0.734375 1.49617 0.734375 1.28285C0.734375 1.06952 0.810071 0.888882 0.961464 0.740931C1.11286 0.592979 1.29522 0.519003 1.50854 0.519003C1.7081 0.519003 1.88702 0.591258 2.0453 0.73577L6.75223 5.42206C6.91739 5.57345 6.99996 5.76613 6.99996 6.0001C6.99996 6.22031 6.91739 6.41299 6.75223 6.57815L2.0453 11.2644C1.90079 11.4089 1.72187 11.4812 1.50854 11.4812Z" fill="#0066CC"/>
</svg>
