<svg width="14" height="15" viewBox="0 0 14 15" fill="none" xmlns="http://www.w3.org/2000/svg">
<path d="M11.3528 3.02828H10.3323C10.2229 2.21726 9.82654 1.47228 9.21509 0.92837C8.60363 0.384462 7.81754 0.0776246 6.9993 0.0634766C6.18106 0.0776246 5.39496 0.384462 4.78351 0.92837C4.17205 1.47228 3.7757 2.21726 3.6663 3.02828H2.6463C2.08509 3.02865 1.54696 3.2517 1.15004 3.64846C0.753133 4.04522 0.52988 4.58327 0.529297 5.14448V12.86C0.5298 13.4211 0.752902 13.9591 1.14964 14.356C1.54638 14.7528 2.08435 14.976 2.6455 14.9767H11.3525C11.9137 14.9762 12.4519 14.753 12.8487 14.3562C13.2456 13.9593 13.4688 13.4212 13.4693 12.86V5.14448C13.4687 4.58335 13.2455 4.04538 12.8487 3.64863C12.4519 3.25189 11.9139 3.02878 11.3528 3.02828ZM6.9993 1.16308C7.52671 1.17454 8.03441 1.36565 8.43848 1.7048C8.84255 2.04395 9.11877 2.51084 9.2215 3.02828H4.7771C4.87982 2.51084 5.15605 2.04395 5.56011 1.7048C5.96418 1.36565 6.47189 1.17454 6.9993 1.16308ZM12.3693 12.86C12.369 13.1296 12.2618 13.388 12.0713 13.5787C11.8807 13.7693 11.6223 13.8767 11.3527 13.8771H2.6458C2.37624 13.8766 2.11786 13.7693 1.92731 13.5786C1.73676 13.388 1.62959 13.1295 1.6293 12.86V5.14448C1.62961 4.87496 1.73682 4.61656 1.9274 4.42598C2.11798 4.2354 2.37638 4.12819 2.6459 4.12788H11.3529C11.6224 4.12825 11.8807 4.23548 12.0713 4.42605C12.2618 4.61663 12.369 4.87499 12.3693 5.14448V12.86Z" fill="#DADADA"/>
</svg>
