<svg width="15" height="15" viewBox="0 0 15 15" fill="none" xmlns="http://www.w3.org/2000/svg">
<path d="M14.2972 13.202L10.4272 9.33195C11.1282 8.40295 11.5492 7.25095 11.5492 5.99995C11.5492 2.93995 9.06022 0.449951 5.99922 0.449951C2.93922 0.449951 0.449219 2.93995 0.449219 5.99995C0.449219 9.06095 2.93922 11.55 5.99922 11.55C7.25022 11.55 8.40222 11.129 9.33122 10.428L13.2012 14.298C13.3522 14.449 13.5512 14.526 13.7492 14.526C13.9472 14.526 14.1452 14.45 14.2972 14.298C14.6002 13.995 14.6002 13.505 14.2972 13.202ZM1.54922 5.99995C1.54922 3.54595 3.54622 1.54995 5.99922 1.54995C8.45322 1.54995 10.4492 3.54695 10.4492 5.99995C10.4492 8.45295 8.45322 10.45 5.99922 10.45C3.54522 10.45 1.54922 8.45395 1.54922 5.99995Z" fill="#DADADA"/>
</svg>
